<svg width="24" height="24" viewBox="0 0 24 24" fill="none" xmlns="http://www.w3.org/2000/svg"><path d="M16.165 5a.508.508 0 00-.474.33l-.557 1.463-1.51.544a.515.515 0 00-.338.485c0 .218.135.412.338.485l1.51.544.557 1.463c.076.199.264.33.474.33.21 0 .399-.131.474-.33l.557-1.463 1.51-.544a.515.515 0 00.339-.485.515.515 0 00-.338-.485l-1.511-.544-.557-1.463a.508.508 0 00-.474-.33z" fill="url(#paint0_linear_2610_30152)"></path><path d="M17.12 13.356a.508.508 0 00-.474.33l-.556 1.463-1.511.544a.515.515 0 00-.338.485c0 .218.135.412.338.485l1.51.544.557 1.463c.076.199.264.33.474.33.21 0 .399-.131.474-.33l.557-1.463 1.51-.544a.515.515 0 00.339-.485.515.515 0 00-.338-.485l-1.511-.544-.556-1.463a.508.508 0 00-.475-.33z" fill="url(#paint1_linear_2610_30152)"></path><path d="M7.461 8.004a.508.508 0 01.475-.33c.21 0 .398.13.474.33l.841 2.213 2.282.82a.515.515 0 01.338.486.515.515 0 01-.338.485l-2.282.822-.841 2.213a.508.508 0 01-.474.33.508.508 0 01-.475-.33L6.62 12.83l-2.282-.822A.515.515 0 014 11.523c0-.218.135-.412.338-.485l2.282-.822.841-2.212z" fill="url(#paint2_linear_2610_30152)"></path><defs><linearGradient id="paint0_linear_2610_30152" x1="4" y1="5" x2="20" y2="19" gradientUnits="userSpaceOnUse"><stop stop-color="#0081C2"></stop><stop offset="1" stop-color="#BBCD00"></stop></linearGradient><linearGradient id="paint1_linear_2610_30152" x1="4" y1="5" x2="20" y2="19" gradientUnits="userSpaceOnUse"><stop stop-color="#0081C2"></stop><stop offset="1" stop-color="#BBCD00"></stop></linearGradient><linearGradient id="paint2_linear_2610_30152" x1="4" y1="5" x2="20" y2="19" gradientUnits="userSpaceOnUse"><stop stop-color="#0081C2"></stop><stop offset="1" stop-color="#BBCD00"></stop></linearGradient></defs></svg>