<svg width="24" height="24" viewBox="0 0 24 24" fill="none" xmlns="http://www.w3.org/2000/svg">
    <g clip-path="url(#clip0_2709_86853)">
        <path fill-rule="evenodd" clip-rule="evenodd" d="M5.636 5.636a9 9 0 1012.728 12.728A9 9 0 005.636 5.636z"
              fill="url(#paint0_linear_2709_86853)"/>
        <path d="M14.892 7.139a.353.353 0 00-.329.229l-.386 1.016-1.05.378a.357.357 0 00-.234.337c0 .151.094.286.234.337l1.05.377.386 1.016a.353.353 0 00.33.23.353.353 0 00.329-.23l.386-1.016 1.05-.377a.357.357 0 00.234-.337.357.357 0 00-.235-.337l-1.049-.378-.386-1.016a.353.353 0 00-.33-.23zM15.556 12.942a.353.353 0 00-.33.229l-.386 1.016-1.05.377a.357.357 0 00-.234.337c0 .152.094.287.235.337l1.049.378.386 1.016a.353.353 0 00.33.23.353.353 0 00.329-.23l.386-1.016 1.05-.378a.357.357 0 00.234-.337.357.357 0 00-.234-.337l-1.05-.377-.386-1.016a.353.353 0 00-.33-.23zM8.848 9.225a.353.353 0 01.33-.23c.145 0 .276.092.329.23l.584 1.537 1.585.57c.14.05.234.185.234.337a.357.357 0 01-.234.337l-1.585.57-.584 1.537a.353.353 0 01-.33.229.353.353 0 01-.329-.23l-.584-1.536-1.585-.57a.357.357 0 01-.235-.337c0-.152.094-.287.235-.337l1.585-.57.584-1.537z"
              fill="#fff"/>
    </g>
    <defs>
        <linearGradient id="paint0_linear_2709_86853" x1="3" y1="3" x2="23.036" y2="18.34"
                        gradientUnits="userSpaceOnUse">
            <stop stop-color="#4DC869"/>
            <stop offset="1" stop-color="#4D64FF"/>
        </linearGradient>
        <clipPath id="clip0_2709_86853">
            <path fill="#fff" d="M0 0h24v24H0z"/>
        </clipPath>
    </defs>
</svg>