<svg xmlns="http://www.w3.org/2000/svg" viewBox="0 0 20 20"  width="16" height="16" fill="currentColor" id="2L2A6">
    <g id="2L2A6_large icon">
        <path style="fill: #f4f4f4" id="2L2A6_vector" fill-rule="evenodd" clip-rule="evenodd" d="M13.75 6.25H15.8333C16.7538 6.25 17.5 6.99619 17.5 7.91667V15.8333C17.5 16.7538 16.7538 17.5 15.8333 17.5H7.91667C6.99619 17.5 6.25 16.7538 6.25 15.8333V13.75H4.16667C3.24619 13.75 2.5 13.0038 2.5 12.0833V4.16667C2.5 3.24619 3.24619 2.5 4.16667 2.5H12.0833C13.0038 2.5 13.75 3.24619 13.75 4.16667V6.25ZM12.0833 3.75H4.16667C3.93655 3.75 3.75 3.93655 3.75 4.16667V12.0833C3.75 12.3135 3.93655 12.5 4.16667 12.5H6.25V7.91667C6.25 6.99619 6.99619 6.25 7.91667 6.25H12.5V4.16667C12.5 3.93655 12.3135 3.75 12.0833 3.75ZM7.91667 7.5H15.8333C16.0635 7.5 16.25 7.68655 16.25 7.91667V15.8333C16.25 16.0635 16.0635 16.25 15.8333 16.25H7.91667C7.68655 16.25 7.5 16.0635 7.5 15.8333V7.91667C7.5 7.68655 7.68655 7.5 7.91667 7.5Z" />
    </g>
</svg>