<svg width="150" height="150" viewBox="0 0 150 150" fill="none" xmlns="http://www.w3.org/2000/svg"><g clip-path="url(#clip0_4424_79722)"><path d="M24.5 25h35c27.614 0 50 22.386 50 50v50h-35c-27.614 0-50-22.386-50-50V25z" fill="#96D347"></path><path d="M37.34 45.694c-.244 0-.484.017-.724 0-.619-.054-1.74.523-1.605-.624.095-.814-.44-2.19 1.375-2.388a298.823 298.823 0 0116.101-1.297c8.155-.445 16.309-.878 24.46-1.326.345-.018.673-.219.913.243.575 1.097-.724 3.492-1.976 3.542-9.108.373-18.215.706-27.319 1.104-3.748.165-7.488.462-11.232.699v.05l.007-.003zM67.766 63.233c-9.671.86-19.394 1.083-29.025 2.402-2.303.315-2.424.129-2.07-2.033.156-.953.814-.925 1.43-1.025 10.01-1.688 20.06-2.971 30.237-3.072.12 0 .262-.068.356-.025.917.405 2.504-1.118 2.816.652.36 2.022-.957 3.119-3.205 3.105h-.542l.003-.004zM65.808 52.978c-9.475.706-18.578 1.387-27.682 2.064-.655.05-1.689.542-1.587-.66.073-.838-.506-2.042 1.34-2.354 10.05-1.71 20.165-2.423 30.346-2.492.545 0 1.088-.053 1.63-.06.727-.008 1.72-.882 2.081.426.335 1.219-.666 2.94-1.798 3.036-1.553.133-3.129.032-4.333.032l.003.008zM48.427 71.474c.36 0 .739-.065 1.08.018.546.129 1.58-.527 1.543.527-.032.92.262 2.254-1.382 2.48-3.09.423-6.164.947-9.253 1.359-.6.078-1.798.498-1.63-.62.156-1.04-.565-2.868 1.382-3 2.762-.187 5.458-1.037 8.26-.764z" fill="#F8F8F8"></path><g clip-path="url(#clip1_4424_79722)"><path fill-rule="evenodd" clip-rule="evenodd" d="M73.536 102.386c-.245.558-.492 1.12-.536 1.765l-.004-.004c.034.18.048.379.063.578.032.44.064.88.305 1.101.397.367.78.065 1.15-.226.138-.109.275-.217.41-.288.388-.204.777-.407 1.167-.61 1.678-.875 3.358-1.751 4.96-2.747.666-.414 1.371-.778 2.075-1.141 1.446-.744 2.89-1.488 3.993-2.668 1.023-1.094 1.913-2.305 2.803-3.518.523-.711 1.045-1.423 1.596-2.112 7.091-8.86 14.576-17.396 22.061-25.934 3.557-4.057 7.115-8.114 10.63-12.206 1.205-1.406.914-2.259-.073-3.348-.766-.845-1.624-1.598-2.482-2.352-1.166-1.024-2.332-2.049-3.268-3.301-.551-.732-.981-.252-1.414.23l-.009.011c-.449.498-.914.982-1.38 1.467-.62.646-1.241 1.293-1.823 1.971-1.812 2.11-3.625 4.22-5.439 6.328-6.472 7.526-12.945 15.053-19.35 22.632-6.137 7.26-11.722 14.886-15.193 23.798-.075.193-.159.383-.242.574zm4.31-3.52c-.224.732-.447 1.465-.725 2.133.682-.429 1.378-.816 2.068-1.2 2.19-1.219 4.315-2.402 5.733-4.765 2.31-3.85 5.285-7.353 8.22-10.808l.109-.127c1.828-2.151 3.642-4.314 5.456-6.478 6.831-8.145 13.663-16.293 21.239-23.807.061-.061.139-.122.22-.186.292-.23.621-.49.304-.85l-.2-.228c-.668-.764-1.375-1.573-2.248-1.987-.565-.269-.932.31-1.263.835a4.433 4.433 0 01-.32.464c-3.788 4.54-7.632 9.035-11.477 13.53-6.39 7.471-12.78 14.943-18.912 22.623l-.129.162c-1.808 2.268-3.62 4.541-5.957 6.477-1.117.927-1.618 2.57-2.118 4.212z" fill="#F8F8F8"></path></g></g><defs><clipPath id="clip0_4424_79722"><path fill="#fff" transform="translate(25 25)" d="M0 0h100v100H0z"></path></clipPath><clipPath id="clip1_4424_79722"><path fill="#fff" transform="translate(73 45)" d="M0 0h52v61H0z"></path></clipPath></defs></svg>