<svg width="16" height="16" viewBox="0 0 24 24" fill="none" xmlns="http://www.w3.org/2000/svg"
     class="lFQ1BNP7y2QxVrSnMOgP">
    <path style="fill:#738eff" d="M8.045 4.502a2.292 2.292 0 00-2.292 2.291V17.21a2.292 2.292 0 002.292 2.292h5.622a4.573 4.573 0 01-.236-1.353l-.099.103H8.045a1.042 1.042 0 01-1.042-1.042V6.793c0-.575.467-1.041 1.042-1.041h7.917c.575 0 1.041.466 1.041 1.041v6.776a4.6 4.6 0 011.25-.105v-6.67a2.292 2.292 0 00-2.291-2.292H8.045z"
          fill="currentColor"/>
    <path style="fill:#738eff" d="M15.33 8.802c0 .346-.28.625-.625.625H9.301a.625.625 0 110-1.25h5.404c.346 0 .625.28.625.625zM14.705 12.552a.625.625 0 100-1.25H9.301a.625.625 0 100 1.25h5.404zM10.968 15.676a.625.625 0 100-1.25H9.3a.625.625 0 100 1.25h1.667zM18.637 15.547a.625.625 0 10-1.25 0v1.904h-1.846a.625.625 0 000 1.25h1.846v1.846a.625.625 0 101.25 0v-1.846h1.904a.625.625 0 100-1.25h-1.904v-1.904z"
          fill="currentColor"/>
</svg>