<svg width="24" height="24" viewBox="0 0 24 24" fill="none" xmlns="http://www.w3.org/2000/svg">
    <path fill-rule="evenodd" clip-rule="evenodd"
          d="M8.828 6.357a.625.625 0 00-1.171.004l-2.388 6.445-.318.934-1.387 3.449a.625.625 0 101.16.466l1.235-3.073h4.609l1.238 3.074a.625.625 0 101.16-.467l-1.39-3.45-.32-.935-2.428-6.447zm1.288 6.975H6.41l.037-.107 1.8-4.861 1.832 4.862.037.106zM15.717 11.785c0-.611.617-1.238 1.757-1.238s1.758.627 1.758 1.238v.58a53.796 53.796 0 01-1.921.539c-.672.167-1.418.38-1.999.757-.62.403-1.08 1.016-1.08 1.92 0 .845.358 1.453.814 1.846.435.375.947.548 1.305.589 1.207.136 2.184-.185 2.88-.735v.122a.625.625 0 101.25 0v-5.618c0-1.598-1.516-2.488-3.007-2.488-1.49 0-3.007.89-3.007 2.488a.625.625 0 101.25 0zm3.514 1.885c-.479.14-1.097.317-1.618.447-.679.169-1.235.342-1.62.592-.345.224-.511.478-.511.872 0 .453.177.724.38.9.225.193.495.277.63.293 1.683.19 2.544-.812 2.684-1.657.032-.196.049-.736.054-1.29v-.157z"
          fill="currentColor"/>
</svg>